# xmcd CD database file
#
# Track frame offsets:
#	150
#	23965
#	46566
#	65613
#	85037
#	105989
#	130440
#	148224
#	172150
#
# Disc length: 2561 seconds
#
# Revision: 0
# Processed by: cddbd v1.5.2PL0 Copyright (c) Steve Scherf et al.
# Submitted via: CDex 1.70beta2
#
DISCID=7809ff09
DTITLE=Angela - Jungla Fria
DYEAR=1994
DGENRE=Salsa
TTITLE0=Quiero Salsa
TTITLE1=Jungla Fria
TTITLE2=De Francia para el Mundo
TTITLE3=Siempre te Amare
TTITLE4=Solo a ti
TTITLE5=Donde iras si no es Conmigo
TTITLE6=La Reina de la Salsa
TTITLE7=Duele
TTITLE8=La Salsa est ici
EXTD=YEAR: 1994
EXTT0=
EXTT1=
EXTT2=
EXTT3=
EXTT4=
EXTT5=
EXTT6=
EXTT7=
EXTT8=
PLAYORDER=
